<svg version="1.1" xmlns="http://www.w3.org/2000/svg" viewBox="0 0 100 45" xml:space="preserve">
	<title>Colored Mountain Logo</title>
  <g id="sun" fill="#f9d71c">
    <path d="M19.3,19.3c-0.2,0-0.3-0.1-0.3-0.3s0.1-0.3,0.3-0.4l5.7-0.5c0.2,0,0.3,0.1,0.4,0.3c0,0.2-0.1,0.3-0.3,0.4 L19.3,19.3L19.3,19.3z"/>
    <path d="M26.4,13c-0.1,0-0.1,0-0.2-0.1l-4.9-3c-0.2-0.1-0.2-0.3-0.1-0.5c0.1-0.2,0.3-0.2,0.5-0.1l4.9,3 c0.2,0.1,0.2,0.3,0.1,0.5C26.6,12.9,26.5,13,26.4,13z"/>
    <path d="M30.9,9c-0.1,0-0.2-0.1-0.3-0.2l-2.2-5.3c-0.1-0.2,0-0.4,0.2-0.4c0.2-0.1,0.4,0,0.4,0.2l2.2,5.3 C31.3,8.8,31.2,9,31,9C31,9,31,9,30.9,9z"/>
    <path d="M36.9,8.5C36.9,8.5,36.9,8.5,36.9,8.5c-0.3,0-0.4-0.2-0.3-0.4l1.3-5.5c0-0.2,0.2-0.3,0.4-0.2 c0.2,0,0.3,0.2,0.2,0.4l-1.3,5.5C37.2,8.4,37.1,8.5,36.9,8.5z"/>
    <path d="M42.1,11.6c-0.1,0-0.2,0-0.2-0.1c-0.1-0.2-0.1-0.4,0-0.5l4.3-3.7c0.2-0.1,0.4-0.1,0.5,0 c0.1,0.2,0.1,0.4,0,0.5l-4.4,3.7C42.3,11.6,42.2,11.6,42.1,11.6z"/>
    <path d="M30.1,23.1c-0.1-0.1-0.3-0.2-0.4-0.4c-2.8-2.8-2.8-7.3,0-10.1s7.3-2.8,10.1,0c2.2,2.2,2.7,5.5,1.3,8.2 l-0.6-0.3c1.2-2.5,0.8-5.5-1.2-7.4c-2.5-2.5-6.6-2.5-9.1,0s-2.5,6.6,0,9.1c0.1,0.1,0.2,0.2,0.4,0.3L30.1,23.1z"/>
  </g>
  <g id="mountain" fill="#6c7474">
    <path fill="#708090" d="M61.3,34.3c4.6-5,0,0,4.6-5c-3.4-1.7,0,0-3.4-1.7c1.6,1.7,0,0,1.6,1.7c-5.8-3.5,0,0-5.8-3.5 c-8.7-11.3,0,0-8.7-11.3c-2.5,2.8,0,0-2.5,2.8c0,0,0,0,0,0c1.6-0.5,0,0,1.6-0.5c-2.7,3.1,0,0-2.7,3.1c0.5,7,0,0,0.5,7 c-2-6.2,0,0-2-6.2c-7.2,6.5,0,0-7.2,6.5c-1.5,4.5,0,0-1.5,4.5c0-4.8,0,0,0-4.8c5.2-5.4,0,0,5.2-5.4c-5.4,2.9,0,0-5.4,2.9 c2.5-2.8,0,0,2.5-2.8l-3.4-3.7c-5.1,6.7,0,0-5.1,6.7c0,0,4.1-2.4,0,0c4.1-2.4,0,0,4.1-2.4c-7.2,9,0,0-7.2,9c1.1-3,0,0,1.1-3 c-6.6,6.2,0,0-6.6,6.2c2.3-3.7,0,0,2.3-3.7c-11.7,7,0,0-11.7,7c22.9-20.7,0,0,22.9-20.7c4.8,3.6,0,0,4.8,3.6 c10.2-7.2,0,0,10.2-7.2c9.3,11.3,0,0,9.3,11.3c8,4.2,0,0,8,4.2c7-5.4,0,0,7-5.4c14,17.7,0,0,14,17.7c-9.1-9.8,0,0-9.1-9.8 c1.7,4.6,0,0,1.7,4.6c-6.6-9.7,0,0-6.6-9.7c-4,5.7,0,0-4,5.7c0.4-3.5,0,0,0.4-3.5C61.3,34.3,70.5,28.3,61.3,34.3z"/>
    <path d="M38.4,29.9c0.8-2.9,0,0,0.8-2.9c4.4-3.6,0,0,4.4-3.6C38.4,29.9,43.7,23.4,38.4,29.9z"/>
    <path d="M50.5,18.7c7.2,9.9,0,0,7.2,9.9c-5.3,3.7,0,0-5.3,3.7c2.6-4.4,0,0,2.6-4.4c-3.1-0.2,0,0-3.2-0.2 c2-1.9,0,0,2-1.9C50.5,18.7,53.9,25.9,50.5,18.7z"/>
    <path d="M78.4,34.3c-4.1-4.2,0,0-4.1-4.2c0-2.5,0,0,0-2.5C78.4,34.3,74.3,27.6,78.4,34.3z"/>
  </g>
  <g id="ground" fill="#1b6f1b">
    <path d="M85.5,41.9c-19.3-8.8-33.4-4.4-36.1-4c-12.3,2.3-23.7,8.2-34.2-0.5c3.1,2,5.9,2.9,7.4,3 c0-0.5-0.3-0.5-0.3-0.8c0.1-0.4,0.5-0.3,0.7-0.3c0.1-0.2-0.4-0.5-0.3-0.8c0-0.3,0.4-0.3,0.6-0.3c-0.1-0.3-0.3-0.5-0.3-0.7 c0-0.3,0.2-0.3,0.4-0.3c0-0.3-0.2-0.3-0.1-0.5c0-0.1,0.2-0.2,0.2-0.2c0-0.2,0.1-0.8,0.2-0.8s0.1,0.5,0.1,0.8c0,0,0.2,0,0.2,0.2 c0,0.2-0.1,0.1-0.1,0.5c0.1,0,0.4,0,0.4,0.3c-0.1,0.3-0.3,0.4-0.3,0.7c0.3,0.1,0.5-0.1,0.6,0.3c0,0.3-0.4,0.5-0.5,0.8 c0.2,0,0.8-0.1,0.8,0.3c0.1,0.4-0.3,0.3-0.3,0.8c0.6,0,0,0,0.6,0c0.3,0.3,0,0,0.3,0.3c0.1-0.4-0.3-0.7-0.3-0.8 c0-0.3,0.5-0.2,0.6-0.2c0.1-0.3-0.3-0.5-0.3-0.7c0-0.2,0.4-0.2,0.6-0.2c-0.1-0.4-0.2-0.5-0.2-0.7c0-0.2,0.1-0.2,0.2-0.2 c0.1-0.3,0.2-1.3,0.3-1.3s0.2,1.1,0.3,1.3c0,0.2,0.2,0,0.3,0.2c0,0.1-0.2,0.2-0.2,0.6c0.2,0.1,0.5,0.1,0.5,0.3 c0,0.2-0.3,0.4-0.2,0.7c0.2,0,0.5-0.1,0.6,0.2c0.1,0.2-0.3,0.4-0.2,0.8c2.3,0.1,4-0.3,4.2-0.3c0-0.2-0.5-0.3-0.4-0.6 c0.4-0.4,0.5-0.2,0.6-0.4c-0.1-0.3-0.4-0.5-0.4-0.7c0-0.2,0.4-0.2,0.5-0.2c0.1-0.3-0.2-0.4-0.2-0.7c0-0.2,0.2-0.2,0.3-0.3 c0.1-0.4,0.2-1.2,0.2-1.2c0.2,0,0.3,1.1,0.3,1.2c0.2,0.1,0.4,0.1,0.4,0.3c0,0.2-0.2,0.2-0.2,0.6c0.4,0,0.5,0.2,0.6,0.4 s0,1.2,0.2,1.2c0.2,0,0-0.6,0-0.8c0-0.5,0.2-0.6,0.6-0.6c0-0.5-0.5-0.7-0.5-1.1c0.1-0.4,0.6-0.3,0.9-0.3c0-0.4-0.5-0.6-0.5-0.9 c0-0.4,0.5-0.3,0.6-0.3c0-0.3-0.4-0.4-0.3-0.7c0.1-0.2,0.2-0.2,0.3-0.2c0.1-0.2,0.2-0.9,0.3-1c0.1,0,0.1,0.8,0.2,1 c0.1,0,0.2,0,0.2,0.2c0,0.3-0.3,0.4-0.2,0.7c0.1,0,0.5-0.1,0.6,0.2c0.1,0.3-0.4,0.5-0.3,0.9c0.2,0,0.8-0.1,0.8,0.3 c0,0.3-0.5,0.7-0.5,1c0.2,0.1,0.9-0.1,1,0.3c0.1,0.2-0.5,0.6-0.4,1c1.9-0.5,2.8-0.6,2.8-1c0.2,0,0.3,0,0.5,0 c0.1-0.2-0.2-0.5-0.2-0.7c0-0.2,0.3-0.2,0.5-0.2c0-0.4-0.3-0.5-0.2-0.7c0-0.2,0.3-0.1,0.5-0.1c0-0.3-0.3-0.4-0.3-0.5 c0-0.2,0.2-0.2,0.3-0.2c0.1-0.3,0.1-1,0.2-1c0.2,0,0.1,0.7,0.2,1.1c0.1,0,0.2,0,0.3,0.2c0,0.2-0.2,0.2-0.2,0.5 c0.2,0,0.3,0,0.4,0.2c0,0.2-0.2,0.2-0.2,0.6c0.2,0,0.4-0.1,0.5,0c0.1,0.2-0.1,0.3-0.1,0.5c0.2-0.1,0.6-0.1,0.6-0.6 c0.2,0,0.4,0,0.6,0c0-0.3-0.4-0.5-0.3-0.8c0-0.3,0.5-0.2,0.7-0.2c-0.1-0.4-0.4-0.5-0.4-0.7c0-0.3,0.4-0.3,0.6-0.3 c0-0.4-0.3-0.4-0.3-0.7c0.1-0.2,0.2-0.2,0.4-0.2c0-0.3-0.1-0.3-0.1-0.5c0-0.1,0.2-0.1,0.2-0.2c0-0.1,0.1-0.7,0.1-0.7 c0.1,0,0.1,0.5,0.1,0.8c0.1,0,0.2,0,0.2,0.2c0,0.2-0.2,0.1-0.1,0.5c0.1,0.1,0.3-0.1,0.3,0.3c0,0.2-0.3,0.4-0.2,0.5 c0.1,0,0.5-0.1,0.6,0.3c0,0.2-0.3,0.3-0.3,0.7c0.2,0,0.5-0.1,0.5,0c0.2,0.2,0,0.4,0,0.6c5-1.4,15.3-3.8,26.6-1.6 c-0.1-0.6,0.4-0.5,0.6-0.5c0-0.2-0.2-0.4-0.3-0.6c0-0.3,0.3-0.2,0.5-0.3c0-0.5-0.2-0.5-0.2-0.7c0.1-0.2,0.2-0.1,0.2-0.2 c0-0.3,0.2-1.3,0.3-1.3c0.1,0,0.2,0.8,0.3,1.3c0.1,0,0.2-0.1,0.3,0.1c0,0.3-0.4,0.6-0.2,0.8c0.2,0,0.5-0.1,0.6,0.1 c0.1,0.3-0.2,0.2-0.3,0.8c0.2,0,0.6-0.1,0.7,0.2c0,0.3-0.4,0.4-0.4,0.8c0.3,0.1,0.5,0.2,0.8,0.2c0.1,0,0.2,0,0.2,0 c0.2-0.1,0.4-0.1,0.5-0.2c0.2-0.1-0.2-0.3-0.2-0.5c0-0.1,0.2-0.2,0.4-0.2c0.2-0.2-0.1-0.4-0.2-0.5c0-0.2,0.2-0.1,0.3-0.2 c0.1-0.6,0.2-1,0.2-1c0.2,0,0.1,0.5,0.2,1c0.1,0.1,0.2,0,0.3,0.2c0,0.3-0.1,0-0.3,0.5c0.2,0.1,0.5-0.1,0.5,0.2 c0,0.2-0.3,0.1-0.3,0.5c0.2,0,0.5,0.1,0.5,0.2c0,0.2-0.2,0.4-0.3,0.6c0.2,0,0.3,0,0.4,0C76.6,37.4,82.4,39.8,85.5,41.9z"/>
    <path fill="#228b22" d="M45.7,42.7c8.7-4.6,22.5-7.5,36.5-1.1c-9.6-2.9-17.1-2.9-18.2-2.7c2.4,0.2,5.3,1.1,6.5,1.7 c0.1,0.1,0.4,0.3,0,0.5c-0.7,0.3-9.2-1.8-13.6,1c2.4-2.6,10.5-1.8,10.5-1.8C61.2,38.7,56.6,38.9,45.7,42.7z"/>
  </g>
</svg>
